<svg width="1133" height="744" viewBox="0 0 1133 744" fill="none" xmlns="http://www.w3.org/2000/svg">
<g clip-path="url(#clip0_6_60)">
<rect width="744" height="1133" transform="matrix(0 -1 1 0 0 744)" fill="#EFFBF7"/>
<path d="M56.8229 279.264C34.3289 314.591 2.58914 332.265 -25.3344 327.526C-53.5034 322.785 -77.9802 295.753 -84.8173 260.702C-91.6543 225.65 -80.9757 182.702 -46.122 161.014C-11.2683 139.327 47.8845 138.78 70.5308 164.932C93.2984 191.208 79.5623 243.939 56.8229 279.264Z" fill="#FECBC4"/>
<path d="M1207.52 237.3C1221.12 259.8 1220.82 291.4 1207.12 314.9C1193.42 338.4 1166.12 353.8 1138.52 354C1110.92 354.2 1082.82 339.3 1069.22 315.9C1055.62 292.5 1056.52 260.6 1070.52 237.9C1084.52 215.2 1111.72 201.6 1139.02 201.5C1166.42 201.5 1193.82 214.8 1207.52 237.3Z" fill="#97E9F3"/>
</g>
<defs>
<clipPath id="clip0_6_60">
<rect width="744" height="1133" fill="white" transform="matrix(0 -1 1 0 0 744)"/>
</clipPath>
</defs>
</svg>
